HIERARCHY
ROOT Hips
{
	OFFSET -0.001795 -0.223333 0.028219
	CHANNELS 6 Xposition Yposition Zposition Zrotation Yrotation Xrotation 
	JOINT LeftUpLeg
	{
		OFFSET 0.069520 -0.091406 -0.006815
		CHANNELS 3 Zrotation Yrotation Xrotation
		JOINT LeftLeg
		{
			OFFSET 0.034277 -0.375199 -0.004496
			CHANNELS 3 Zrotation Yrotation Xrotation
			JOINT LeftFoot
			{
				OFFSET -0.013596 -0.397961 -0.043693
				CHANNELS 3 Zrotation Yrotation Xrotation
				JOINT LeftToe
				{
					OFFSET 0.026358 -0.055791 0.119288
					CHANNELS 3 Zrotation Yrotation Xrotation
					End Site
					{
						OFFSET 0.000000 0.000000 0.000000
					}
				}
			}
		}
	}
	JOINT RightUpLeg
	{
		OFFSET -0.067670 -0.090522 -0.004320
		CHANNELS 3 Zrotation Yrotation Xrotation
		JOINT RightLeg
		{
			OFFSET -0.038290 -0.382569 -0.008850
			CHANNELS 3 Zrotation Yrotation Xrotation
			JOINT RightFoot
			{
				OFFSET 0.015774 -0.398415 -0.042312
				CHANNELS 3 Zrotation Yrotation Xrotation
				JOINT RightToe
				{
					OFFSET -0.025372 -0.048144 0.123348
					CHANNELS 3 Zrotation Yrotation Xrotation
					End Site
					{
						OFFSET 0.000000 0.000000 0.000000
					}
				}
			}
		}
	}
	JOINT Spine
	{
		OFFSET -0.002533 0.108963 -0.026696
		CHANNELS 3 Zrotation Yrotation Xrotation
		JOINT Spine1
		{
			OFFSET 0.005487 0.135180 0.001092
			CHANNELS 3 Zrotation Yrotation Xrotation
			JOINT Spine2
			{
				OFFSET 0.001457 0.052922 0.025425
				CHANNELS 3 Zrotation Yrotation Xrotation
				JOINT Neck
				{
					OFFSET -0.002778 0.213870 -0.042857
					CHANNELS 3 Zrotation Yrotation Xrotation
					JOINT Head
					{
						OFFSET 0.005152 0.064970 0.051349
						CHANNELS 3 Zrotation Yrotation Xrotation
						End Site
						{
							OFFSET 0.000000 0.000000 0.000000
						}
					}
				}
				JOINT LeftShoulder
				{
					OFFSET 0.078845 0.121749 -0.034090
					CHANNELS 3 Zrotation Yrotation Xrotation
					JOINT LeftArm
					{
						OFFSET 0.090977 0.030469 -0.008868
						CHANNELS 3 Zrotation Yrotation Xrotation
						JOINT LeftForeArm
						{
							OFFSET 0.259612 -0.012772 -0.027456
							CHANNELS 3 Zrotation Yrotation Xrotation
							JOINT LeftHand
							{
								OFFSET 0.249234 0.008986 -0.001171
								CHANNELS 3 Zrotation Yrotation Xrotation
								End Site
								{
									OFFSET 0.000000 0.000000 0.000000
								}
							}
						}
					}
				}
				JOINT RightShoulder
				{
					OFFSET -0.081759 0.118833 -0.038615
					CHANNELS 3 Zrotation Yrotation Xrotation
					JOINT RightArm
					{
						OFFSET -0.096012 0.032551 -0.009143
						CHANNELS 3 Zrotation Yrotation Xrotation
						JOINT RightForeArm
						{
							OFFSET -0.253742 -0.013329 -0.021401
							CHANNELS 3 Zrotation Yrotation Xrotation
							JOINT RightHand
							{
								OFFSET -0.255298 0.007772 -0.005559
								CHANNELS 3 Zrotation Yrotation Xrotation
								End Site
								{
									OFFSET 0.000000 0.000000 0.000000
								}
							}
						}
					}
				}
			}
		}
	}
}
MOTION
Frames: 10
Frame Time: 0.050000
0.015408 0.948289 -0.036258 -0.695051 1.349761 8.166987 6.074160 -0.427247 -5.597162 2.071386 -0.025892 -3.635978 1.532767 6.742848 10.194113 0.000000 0.000000 0.000000 -4.033677 0.596419 -6.580474 -9.348735 0.068119 -7.350425 4.283834 0.723667 18.397250 0.000000 0.000000 0.000000 6.114893 0.604303 -8.965770 -0.585743 0.291161 -0.769538 -8.847956 5.502712 -2.494942 13.850791 -8.552932 -7.773290 0.000000 0.000000 0.000000 -16.046196 -5.326420 -0.933604 -33.969210 -14.643821 0.881857 -79.369609 -55.420858 46.523238 0.000000 0.000000 0.000000 13.581568 -3.277010 -1.604021 47.339862 7.666819 -1.138009 75.034730 54.875829 48.625853 0.000000 0.000000 0.000000 
0.014984 0.947971 -0.035395 -1.034653 1.393293 8.009275 6.416543 -0.414707 -5.408490 2.078104 -0.028284 -3.600037 1.565653 6.761532 10.055789 0.000000 0.000000 0.000000 -3.774025 0.583336 -6.334691 -9.252446 0.075550 -7.267633 4.342931 0.860746 18.328172 0.000000 0.000000 0.000000 6.188854 0.628479 -9.165656 -0.379592 0.188415 -0.480852 -8.613245 5.096322 -3.036415 13.937697 -8.549741 -7.928919 0.000000 0.000000 0.000000 -16.281567 -4.565807 -1.262400 -34.952200 -14.345381 0.845146 -76.080459 -56.275391 45.009984 0.000000 0.000000 0.000000 13.497592 -3.399531 -1.742542 48.107478 7.310523 -1.195994 74.487104 54.590440 47.701124 0.000000 0.000000 0.000000 
0.014407 0.947767 -0.034558 -1.265680 1.562477 8.062009 6.676767 -0.417263 -5.472334 2.136072 -0.045212 -3.346886 1.557680 6.737385 9.962902 0.000000 0.000000 0.000000 -3.484080 0.585886 -6.309012 -9.192639 0.080179 -7.216274 4.213328 0.884709 17.806066 0.000000 0.000000 0.000000 6.187335 0.658705 -9.535763 -0.330558 0.172810 -0.740427 -8.467329 5.007681 -3.014916 14.030687 -8.731970 -7.559109 0.000000 0.000000 0.000000 -16.658571 -3.871698 -1.647914 -35.804838 -13.805586 0.714542 -72.945342 -56.929944 43.352772 0.000000 0.000000 0.000000 13.836003 -3.973564 -2.052876 48.633398 6.016126 -1.703707 75.040481 53.574677 47.146408 0.000000 0.000000 0.000000 
0.013888 0.947680 -0.034055 -1.469384 1.690953 7.986242 7.070845 -0.407889 -5.249173 2.205383 -0.042301 -3.493151 1.476858 6.734621 10.386580 0.000000 0.000000 0.000000 -3.250699 0.579150 -6.173927 -8.949397 0.071588 -7.213405 4.318009 1.214427 17.514686 0.000000 0.000000 0.000000 6.128135 0.672319 -9.725427 -0.365057 0.176458 -0.304658 -8.163801 4.653755 -3.697722 14.147465 -8.721821 -7.763421 0.000000 0.000000 0.000000 -17.134227 -3.043640 -2.079681 -37.146535 -12.269385 0.337257 -70.551829 -56.122722 41.059204 0.000000 0.000000 0.000000 13.881071 -3.932021 -2.104957 49.944320 4.193180 -2.361171 73.778786 52.212541 44.724390 0.000000 0.000000 0.000000 
0.013527 0.947623 -0.034040 -1.550736 1.756073 8.078931 7.266061 -0.412768 -5.392259 2.186072 -0.056617 -3.189334 1.346115 6.487710 10.273525 0.000000 0.000000 0.000000 -3.057110 0.594331 -6.338237 -8.923643 0.089721 -7.054872 4.224818 1.221494 17.138111 0.000000 0.000000 0.000000 6.156732 0.678171 -9.811321 -0.292189 0.144017 -0.364114 -8.336117 4.776362 -3.576867 14.609019 -8.918157 -8.201076 0.000000 0.000000 0.000000 -17.551298 -2.585832 -2.423584 -38.333511 -10.022136 -0.312864 -67.046209 -54.762193 37.530459 0.000000 0.000000 0.000000 14.529811 -4.732523 -2.510997 50.959290 2.689431 -3.026803 70.986889 50.001664 40.880350 0.000000 0.000000 0.000000 
0.013285 0.947507 -0.034259 -1.600406 1.815578 8.053793 7.409886 -0.411377 -5.351159 2.223622 -0.046335 -3.433283 1.317407 6.587388 10.757326 0.000000 0.000000 0.000000 -2.915727 0.592829 -6.290587 -8.794146 0.086484 -7.041246 4.243494 1.331957 16.981424 0.000000 0.000000 0.000000 6.072745 0.650543 -9.559359 -0.400783 0.198646 -0.510961 -8.126999 4.749180 -3.619721 14.345217 -8.635519 -8.504427 0.000000 0.000000 0.000000 -18.302171 -1.919930 -2.887147 -39.497275 -7.153844 -1.204559 -61.050603 -50.780769 30.951538 0.000000 0.000000 0.000000 14.864718 -5.076237 -2.716546 51.883972 0.540767 -3.950597 65.709688 46.798141 34.758789 0.000000 0.000000 0.000000 
0.013146 0.947218 -0.034506 -1.663677 2.054676 8.186018 7.509157 -0.421026 -5.492762 2.299644 -0.042251 -3.593817 1.240016 6.397894 10.473697 0.000000 0.000000 0.000000 -2.624432 0.611257 -6.472851 -8.886703 0.074309 -7.180499 4.243663 1.508374 16.674051 0.000000 0.000000 0.000000 5.985597 0.650529 -9.679516 -0.469599 0.229965 -0.500081 -7.912522 4.671665 -3.290382 14.638842 -8.702462 -9.020230 0.000000 0.000000 0.000000 -18.272013 -1.422669 -3.107500 -40.493836 -4.610293 -2.095852 -53.582023 -45.494130 23.654123 0.000000 0.000000 0.000000 15.222487 -5.615317 -3.014527 52.436470 -1.086197 -4.701068 58.534501 42.375442 27.402032 0.000000 0.000000 0.000000 
0.013072 0.946958 -0.034665 -1.535273 2.142423 8.261463 7.263568 -0.419717 -5.272194 2.476138 -0.019967 -4.223461 1.038601 6.156744 10.757264 0.000000 0.000000 0.000000 -2.637439 0.594650 -6.256612 -8.794247 0.014529 -7.650862 4.529605 1.999916 16.762974 0.000000 0.000000 0.000000 5.739427 0.616621 -9.452193 -0.495607 0.252828 -0.884881 -7.672879 4.715469 -2.805344 14.507860 -8.495346 -9.489683 0.000000 0.000000 0.000000 -18.136591 -0.911269 -3.317926 -41.751729 -2.510227 -2.932933 -44.911258 -38.386363 16.229692 0.000000 0.000000 0.000000 14.972160 -6.359809 -3.371071 53.124723 -2.860027 -5.514766 52.038802 37.550063 21.144824 0.000000 0.000000 0.000000 
0.013070 0.946899 -0.034775 -1.416550 2.425157 8.257894 7.256530 -0.419036 -5.075392 2.260763 0.015393 -4.608748 1.027012 6.108586 10.568189 0.000000 0.000000 0.000000 -2.503765 0.600254 -6.318329 -9.064909 0.035052 -7.576558 4.284468 1.779100 16.379496 0.000000 0.000000 0.000000 5.513996 0.591143 -9.314326 -0.584782 0.303948 -1.239303 -7.328186 4.500753 -2.194222 14.752694 -8.646312 -9.679890 0.000000 0.000000 0.000000 -18.041669 -0.344635 -3.521499 -42.356416 -0.718395 -3.657217 -38.621335 -30.469940 10.858586 0.000000 0.000000 0.000000 14.883150 -6.982782 -3.700002 53.232560 -4.085234 -6.085016 46.014762 32.610127 15.909831 0.000000 0.000000 0.000000 
0.013085 0.946812 -0.034987 -1.194149 2.240719 8.129856 6.821575 -0.400833 -4.602906 2.402528 0.028227 -5.024273 1.075231 6.223719 10.738694 0.000000 0.000000 0.000000 -2.627629 0.577772 -6.054980 -9.008646 -0.016614 -7.977194 4.423244 1.984479 16.399498 0.000000 0.000000 0.000000 5.371580 0.540779 -8.727394 -0.527300 0.291175 -1.722969 -7.350520 4.667228 -2.064406 14.629372 -8.458288 -10.038244 0.000000 0.000000 0.000000 -17.700473 -0.237661 -3.516043 -43.463462 1.026560 -4.411530 -32.699390 -25.159887 7.518506 0.000000 0.000000 0.000000 14.443444 -7.265297 -3.792473 54.009483 -5.178158 -6.615329 39.999701 29.143950 12.187923 0.000000 0.000000 0.000000 
